# xmcd
#
# Track frame offsets:
#	150
#	5108
#	21488
#	50275
#	77404
#	126529
#	142364
#	164660
#	175764
#	201987
#
# Disc length: 2845 seconds
#
# Revision: 1
# Processed by: cddbd v1.5.1PL2 Copyright (c) Steve Scherf et al.
# Submitted via: EasyCDDAExtractor 9.0.0.1
#
DISCID=940b1b0a
DTITLE=Dio - Birch Hill Nightclub Old Bridge 16-09-94 Disc 1
DYEAR=1994
DGENRE=Hard Rock
TTITLE0=Intro
TTITLE1=Jesus Mary and The Holy Ghost
TTITLE2=Strange Highway
TTITLE3=Don't Talk To Strangers
TTITLE4=Pain Incl Guitar Solo
TTITLE5=The Mob Rules
TTITLE6=Holy Diver
TTITLE7=Man On The Silver Mountain
TTITLE8=Drum Solo
TTITLE9=Heaven and Hell Reprise
EXTD=
EXTT0=
EXTT1=
EXTT2=
EXTT3=
EXTT4=
EXTT5=
EXTT6=
EXTT7=
EXTT8=
EXTT9=
PLAYORDER=
